<svg width="162" height="159" viewBox="0 0 162 159" fill="none" xmlns="http://www.w3.org/2000/svg">
<path d="M80.2659 15.9932C44.2716 15.9932 14.9866 44.7374 14.9866 80.0683C15.0146 83.7447 15.3575 87.4122 16.0117 91.0322C16.0117 91.0539 16.0513 91.0446 16.0592 91.0632C16.1809 91.5084 16.4479 91.9022 16.8194 92.1843C17.1908 92.4664 17.6462 92.6213 18.1158 92.6253C18.6929 92.6249 19.2462 92.3996 19.6541 91.9989C20.062 91.5983 20.2911 91.0551 20.2911 90.4887C20.2808 90.4196 20.2666 90.3512 20.2484 90.2837L20.2864 90.2667C19.6743 86.901 19.3567 83.4902 19.3372 80.0714C19.3372 47.0447 46.6161 20.2709 80.2644 20.2709C113.913 20.2709 141.195 47.0479 141.195 80.0714C141.195 113.095 113.916 139.87 80.2659 139.87C57.7789 139.87 38.1839 127.88 27.6333 110.09C27.6333 110.08 27.6191 110.073 27.6159 110.062C27.5875 110.016 27.5558 109.971 27.5289 109.924C27.3489 109.582 27.0768 109.294 26.7422 109.092C26.4076 108.891 26.0232 108.783 25.6305 108.78C25.0537 108.78 24.5006 109.005 24.0928 109.406C23.6849 109.806 23.4556 110.349 23.4552 110.915C23.4652 111.355 23.617 111.781 23.8887 112.131L23.8523 112.152C35.1685 131.251 56.1906 144.139 80.2691 144.139C116.262 144.139 145.547 115.399 145.547 80.0683C145.547 44.7374 116.262 15.9932 80.2659 15.9932Z" fill="#FF6939" fill-opacity="0.99"/>
<path d="M80.2675 88.5726C93.2908 88.5726 103.889 98.976 103.889 111.757H108.241C108.241 96.6189 95.6923 84.3011 80.2675 84.3011C64.8427 84.3011 52.2925 96.6189 52.2925 111.757H56.6446C56.6446 98.9728 67.2363 88.5726 80.2675 88.5726Z" fill="#09090A"/>
<path d="M52.2925 111.757C52.2925 112.323 52.5217 112.866 52.9296 113.266C53.3376 113.667 53.8908 113.892 54.4678 113.892C55.0447 113.892 55.598 113.667 56.0059 113.266C56.4139 112.866 56.6431 112.323 56.6431 111.757C56.6431 111.19 56.4139 110.647 56.0059 110.247C55.598 109.846 55.0447 109.621 54.4678 109.621C53.8908 109.621 53.3376 109.846 52.9296 110.247C52.5217 110.647 52.2925 111.19 52.2925 111.757Z" fill="#09090A"/>
<path d="M103.889 111.757C103.889 112.323 104.118 112.866 104.526 113.266C104.934 113.667 105.487 113.892 106.064 113.892C106.641 113.892 107.194 113.667 107.602 113.266C108.01 112.866 108.24 112.323 108.24 111.757C108.24 111.19 108.01 110.647 107.602 110.247C107.194 109.846 106.641 109.621 106.064 109.621C105.487 109.621 104.934 109.846 104.526 110.247C104.118 110.647 103.889 111.19 103.889 111.757Z" fill="#09090A"/>
<path d="M68.0058 79.3006C71.2335 82.4686 75.6111 84.2483 80.1758 84.2483C84.7404 84.2483 89.1181 82.4686 92.3457 79.3006C95.5734 76.1327 97.3867 71.8362 97.3867 67.3561C97.3867 62.876 95.5734 58.5794 92.3457 55.4115C90.7475 53.8429 88.8502 52.5986 86.7621 51.7497C84.674 50.9008 82.4359 50.4639 80.1758 50.4639C75.6111 50.4639 71.2335 52.2436 68.0058 55.4115C66.4076 56.9801 65.1399 58.8422 64.2749 60.8917C63.41 62.9412 62.9648 65.1378 62.9648 67.3561C62.9648 71.8362 64.7781 76.1327 68.0058 79.3006Z" fill="#FEFEFF"/>
<path d="M80.2658 88.5711C68.3769 88.5711 58.7043 79.0776 58.7043 67.4073C58.7043 55.7369 68.3769 46.2435 80.2658 46.2435C92.1548 46.2435 101.829 55.7385 101.829 67.4073C101.829 79.0761 92.1564 88.5711 80.2658 88.5711ZM80.2658 50.5151C76.8615 50.5151 73.5336 51.5059 70.7029 53.3623C67.8723 55.2187 65.6661 57.8572 64.3634 60.9442C63.0607 64.0313 62.7199 67.4281 63.3842 70.7052C64.0485 73.9823 65.688 76.9925 68.0953 79.3551C70.5027 81.7177 73.5698 83.3265 76.9088 83.9782C80.2478 84.6299 83.7087 84.2951 86.8539 83.0162C89.999 81.7373 92.6871 79.5718 94.5783 76.7934C96.4694 74.015 97.4787 70.7486 97.4783 67.4073C97.4729 62.9286 95.6577 58.6349 92.4308 55.4681C89.204 52.3013 84.8291 50.52 80.2658 50.5151Z" fill="#09090A"/>
<rect x="0.5" y="0.5" width="161" height="158" stroke="#FF6939" stroke-opacity="0.99"/>
</svg>
